<svg width="142" height="40" viewBox="0 0 142 40" fill="none" xmlns="http://www.w3.org/2000/svg">
<path d="M2.13333 33V12.2H15.7867V15.4533H6.18667V20.52H13.5467V23.5333H6.18667V33H2.13333ZM18.6646 33V12.2H22.7446V29.7467H31.7313V33H18.6646ZM34.6646 33V12.2H48.6112V15.4533H38.7179V20.3867H46.3979V23.4267H38.7179V29.7467H48.7712V33H34.6646ZM50.5158 33V32.84L56.8092 21.9333L51.4225 12.36V12.2H55.7692L59.7425 19.3467H60.3558L64.2492 12.2H68.4625V12.36L63.1025 21.9333L69.3425 32.84V33H64.8092L60.1692 24.52H59.5558L54.8892 33H50.5158Z" fill="#0067FF"/>
<path d="M76.4213 33L70.0479 12.36V12.2H74.2346L79.4879 29.48H80.1279L85.3546 12.2H89.3013V12.36L82.9546 33H76.4213ZM91.6958 33V12.2H105.642V15.4533H95.7492V20.3867H103.429V23.4267H95.7492V29.7467H105.802V33H91.6958ZM116.189 33.4C114.643 33.4 113.327 33.1956 112.243 32.7867C111.158 32.36 110.269 31.8 109.576 31.1067C108.883 30.3956 108.367 29.6133 108.029 28.76C107.691 27.9067 107.496 27.0444 107.442 26.1733H111.256C111.309 26.8489 111.523 27.5067 111.896 28.1467C112.269 28.7689 112.82 29.2844 113.549 29.6933C114.296 30.0844 115.22 30.28 116.323 30.28C117.531 30.28 118.438 30.0311 119.043 29.5333C119.665 29.0356 119.976 28.3689 119.976 27.5333C119.976 26.7156 119.7 26.0667 119.149 25.5867C118.598 25.1067 117.878 24.7156 116.989 24.4133L114.243 23.5067C113.265 23.1689 112.331 22.7689 111.443 22.3067C110.554 21.8444 109.825 21.2311 109.256 20.4667C108.687 19.7022 108.403 18.7156 108.403 17.5067C108.403 16.28 108.705 15.2489 109.309 14.4133C109.931 13.56 110.785 12.9111 111.869 12.4667C112.954 12.0222 114.198 11.8 115.602 11.8C117.398 11.8 118.829 12.1111 119.896 12.7333C120.963 13.3378 121.745 14.1111 122.243 15.0533C122.74 15.9956 123.034 17 123.122 18.0667H119.309C119.256 17.5333 119.096 17.0267 118.829 16.5467C118.58 16.0489 118.18 15.6489 117.629 15.3467C117.096 15.0267 116.367 14.8667 115.443 14.8667C114.429 14.8667 113.656 15.0889 113.122 15.5333C112.607 15.96 112.349 16.52 112.349 17.2133C112.349 17.9778 112.625 18.5822 113.176 19.0267C113.745 19.4533 114.483 19.8178 115.389 20.12L118.136 21.0533C119.131 21.3733 120.065 21.7733 120.936 22.2533C121.807 22.7156 122.518 23.3378 123.069 24.12C123.638 24.9022 123.923 25.9333 123.923 27.2133C123.923 29.1511 123.238 30.6711 121.869 31.7733C120.518 32.8578 118.625 33.4 116.189 33.4ZM130.365 33V15.4533H124.019V12.2H140.819V15.4533H134.472V33H130.365Z" fill="#5DDF89"/>
</svg>
